<svg width="181" height="281" viewBox="0 0 181 281" fill="none" xmlns="http://www.w3.org/2000/svg">
<path d="M180.541 264.167C179.432 263.891 178.221 263.776 177.098 264.028C175.267 264.44 173.74 265.796 172.749 267.347C172.101 268.381 171.653 269.526 171.427 270.726C170.744 274.184 170.413 284.24 171.207 287.625C172.142 288.514 176.854 288.237 178.346 288.424C178.663 288.459 178.573 288.462 178.818 288.456C181.131 288.4 183.722 288.945 185.978 288.434C186.205 288.261 186.279 288.149 186.385 287.872C186.875 286.591 186.551 284.767 186.554 283.399C186.565 278.387 187.187 272.141 184.908 267.51C184.04 265.746 182.341 264.725 180.541 264.167Z" fill="white"/>
<path d="M159.462 264.216C158.831 264.11 158.174 264.016 157.534 264.068C156.091 264.185 154.902 264.817 153.974 265.922C152.974 267.113 152.361 268.673 151.997 270.172C151.205 273.434 150.53 283.637 150.876 287.055C152.878 287.52 154.992 287.37 157.038 287.638C158.705 287.43 161.776 288.167 163.146 287.525C163.573 287.324 163.641 287.13 163.788 286.698C164.593 284.316 164.467 270.358 163.331 268.181C162.261 266.126 161.565 265.277 159.462 264.216Z" fill="white"/>
<path d="M183.967 242.654C183.504 242.576 183.022 242.553 182.556 242.618C181.487 242.766 180.619 243.552 180.037 244.417C179.504 245.207 179.145 246.145 178.941 247.073C178.38 249.614 178.22 256.295 178.726 258.821C179.332 259.487 181.701 259.486 182.654 259.578C184.128 259.312 185.687 259.842 186.942 258.812C187.615 257.435 187.329 247.303 186.74 245.624C186.211 244.117 185.325 243.367 183.967 242.654Z" fill="white"/>
<path d="M172.91 242.913C172.106 242.622 171.077 242.48 170.247 242.746C169.134 243.102 168.344 244.107 167.881 245.135C166.903 247.306 166.041 256.726 166.895 259.024C167.689 259.535 168.704 259.38 169.604 259.326C171.065 259.449 173.75 259.587 175.028 258.835C175.638 256.251 175.633 248.652 174.974 246.076C174.634 244.746 174.138 243.629 172.91 242.913Z" fill="white"/>
<path d="M161.293 243.22C161.008 243.177 160.717 243.14 160.43 243.119C159.473 243.049 158.533 243.489 157.839 244.134C155.034 246.743 155.709 255.289 155.647 259.077C156.763 259.251 157.89 259.376 159.011 259.522C159.054 259.521 159.098 259.527 159.142 259.522C160.246 259.379 162.344 259.636 163.186 258.953C164.029 256.95 163.98 248.969 163.467 246.752C163.133 245.305 162.599 244.031 161.293 243.22Z" fill="white"/>
<path d="M216.404 220.886C216.819 220.125 217.97 218.239 217.63 217.445C217.242 216.541 216.665 215.482 216.273 214.527C215.084 211.63 214.49 209.318 212.148 207.087C211.092 206.08 208.598 205.255 207.625 204.348C207.978 204.677 206.424 200.821 206.985 200.839C206.656 200.828 207.908 200.024 208.106 199.979C208.423 199.907 208.726 199.543 208.893 199.271C208.996 198.72 209.059 198.648 208.878 198.116C207.468 196.782 206.731 198.572 206.66 196.066L206.645 195.431C206.108 194.993 206.032 194.988 205.366 194.748C204.098 194.91 204.841 196.66 204.188 197.462C203.566 198.227 201.979 198.272 201.987 199.532C202.616 200.413 203.152 200.581 204.181 200.887C204.089 201.646 203.941 204.362 203.234 204.75C200.96 205.996 198.99 207.407 197.519 209.568C195.777 212.126 195.333 214.964 193.697 217.565C193.481 217.907 194.719 220.055 194.972 220.478C195.09 224.589 195.096 231.093 194.718 235.139L194.553 235.04C193.57 234.46 191.151 233.658 190.924 232.606C190.831 231.745 190.495 230.587 189.524 230.173C185.783 228.579 187.36 227.704 186.674 225.428C185.4 221.203 177.187 218.737 174.538 215.272C173.911 214.451 173.622 211.552 174.23 210.893C174.867 210.851 175.788 210.928 176.254 210.66C177.303 208.554 174.501 208.936 174.059 208.565C173.952 207.758 173.996 206.805 173.632 206.183C172.013 205.213 171.973 208.289 171.859 209.142C171.055 209.23 170.435 209.24 169.695 209.561C169.431 210.013 169.293 210.998 169.89 211.208C170.564 211.446 171.048 210.94 171.81 211.257C172.019 212.252 171.535 213.813 171.121 214.738C171.18 214.608 169.874 216.34 169.933 216.276C168.652 217.657 166.546 218.36 165 219.428C162.466 221.163 160.087 223.518 157.757 225.534C157.369 225.869 157.597 228.191 157.207 228.442C156.186 229.103 154.989 230.007 153.918 230.45L153.552 230.419C152.554 228.943 154.494 222.861 155.004 221.114C155.252 220.264 153.045 216.168 152.8 215.134C152.104 212.189 147.913 211.502 148.091 208.926C148.176 207.688 149.736 206.942 149.817 205.405C149.492 204.93 149.034 204.82 148.487 204.587C147.912 203.813 148.294 203.155 147.642 202.453L147.383 202.449C146.703 203.15 144.834 205.68 144.464 206.527C144.759 207.556 145.387 207.113 145.733 208.113C145.742 209.037 145.472 209.891 144.806 210.525C143.152 212.099 141.07 212.985 139.788 215.016C139.109 216.093 138.766 217.457 138.195 218.553C137.724 219.456 136.882 219.657 136.867 220.967C136.855 222.005 137.556 222.323 137.579 223.344C137.65 226.435 137.163 229.663 137.094 232.717C137.042 235.008 135.236 236.281 135.184 237.315C135.093 239.098 135.075 241.355 134.98 243.204C134.676 249.339 134.426 255.476 134.229 261.615C133.976 269.198 133.48 276.721 133.724 284.326C133.821 287.337 138.152 286.394 140.106 286.589C141.561 286.67 146.242 287.362 147.301 286.51C147.966 284.426 147.989 281.475 148.161 279.268C148.902 269.772 149.458 260.243 150.688 250.792C151.046 248.039 151.325 244.668 152.031 242.01C152.834 241.368 153.526 240.795 154.522 240.478C162.403 237.967 183.896 237.214 191.242 240.925C191.87 241.242 192.683 241.736 192.883 242.463C193.445 244.504 193.093 249.344 193.12 251.699L193.524 274.458L193.743 282.171C193.787 284.099 193.524 287.221 194.621 288.781C196.962 290.277 211.404 289.839 214.839 290.409C215.616 290.537 217.3 290.345 218.157 290.389L223.888 248.656C217.445 244.975 218.251 244.847 218.463 237.737C218.509 236.196 216.659 235.583 216.567 234.028C216.217 230.233 216.765 224.483 216.404 220.886ZM202.244 235.015L202.003 235.012C201.233 235.007 200.545 235.191 199.784 234.983C199.003 234.136 199.347 224.314 199.453 222.5C199.491 221.849 199.593 221.198 199.705 220.556C200.909 219.018 202.545 218.143 204.49 217.908C205.547 217.78 207.176 217.912 208.163 218.345L208.439 218.492C208.714 218.636 208.984 218.74 209.272 218.85C209.925 219.097 210.73 219.572 211.045 220.227C211.802 221.803 211.994 233.035 211.285 234.662C209.94 235.247 203.993 235.103 202.244 235.015ZM203.629 262.407C202.986 262.421 202.085 262.62 201.488 262.406C200.914 260.147 201.104 245.889 201.98 244.197C202.189 243.793 202.647 243.649 203.066 243.55C204.319 243.25 205.732 243.368 206.994 243.556C207.79 243.804 208.52 244.092 208.948 244.855C209.232 245.361 209.286 245.848 209.317 246.415C209.466 249.178 209.188 251.989 209.148 254.755C209.113 257.237 209.429 259.925 209.062 262.369C207.286 262.342 205.529 262.415 203.763 262.436C203.717 262.437 203.674 262.416 203.629 262.407ZM148.788 234.575C146.889 234.573 144.759 234.426 142.916 234.885C142.191 234.811 141.434 234.803 140.773 234.472C140.634 231.919 141.15 225.742 141.954 223.349C143.149 222.31 144.446 221.486 146.109 221.637C146.697 221.691 147.291 221.81 147.872 221.914C148.668 222.37 149.141 222.635 149.39 223.546C150.087 226.09 148.896 231.65 148.788 234.575ZM139.543 258.636C139.63 256.081 139.582 243.732 140.976 242.419C141.639 241.794 142.756 241.56 143.638 241.632C144.166 241.675 144.83 241.767 145.327 241.941C145.831 242.223 146.223 242.386 146.459 242.949C146.566 244.982 145.376 257.041 144.494 258.443C143.154 259.054 140.986 258.814 139.543 258.636ZM170.301 233.062C169.158 232.312 168.565 231.349 168.298 230.004C167.974 228.376 168.217 226.536 169.15 225.14C169.676 224.354 170.565 223.514 171.539 223.392C171.835 223.355 172.149 223.367 172.447 223.37C173.534 223.69 174.058 223.982 174.606 225.002C175.455 226.581 175.479 228.675 174.929 230.355C174.557 231.489 173.846 232.447 172.768 232.99C171.961 233.398 171.15 233.219 170.301 233.062Z" fill="white"/>
<path d="M146.228 223.859C145.808 223.705 145.411 223.76 145.012 223.93C144.248 224.255 143.822 225.012 143.532 225.751C143.069 226.933 142.295 231.399 142.948 232.441C143.226 232.883 143.701 232.891 144.165 233.007C144.357 232.989 144.551 232.975 144.743 232.956C145.575 232.873 146.312 232.939 147.139 233.029C147.422 231.196 147.842 226.559 147.367 224.814C147.216 224.261 146.697 224.129 146.228 223.859Z" fill="white"/>
<path d="M110.069 10.2414C109.28 9.82953 108.562 9.25182 107.928 8.62953C104.064 4.83767 100.548 -6.18935 100.5 -11.4976C100.487 -12.9992 100.76 -14.627 101.941 -15.6612C106.285 -19.4674 157.204 -26.2176 164.83 -25.9247C166.111 -26.5452 169.265 -26.1043 170.774 -26.1769C171.324 -26.2032 171.674 -26.5051 172.215 -26.5449C173.809 -26.6615 177.219 -26.5451 178.391 -25.2309C178.829 -24.739 179.042 -24.2986 178.926 -23.6347C178.776 -22.7775 177.926 -21.8849 177.275 -21.3662C175.482 -19.9379 173.245 -18.7943 171.262 -17.6296C164.957 -13.9266 158.381 -10.6342 151.893 -7.25885C144.329 -3.32226 120.763 9.34087 113.522 10.6184C112.274 10.8384 111.267 10.6155 110.069 10.2414Z" fill="white"/>
<path d="M160.253 56.4981C157.471 54.933 153.052 52.7876 152.004 49.5563C151.559 48.1852 152.809 45.9335 153.479 44.7003C157.029 38.1741 192.176 -9.53927 195.242 -10.0397C196.049 -10.1704 197.024 -10.1516 197.665 -9.56373C198.978 -8.36171 198.757 -6.82782 198.698 -5.24438C197.276 -0.13971 196.373 5.17906 195.092 10.3388C193.194 17.9831 190.838 25.5539 188.509 33.0732C187.003 37.9378 185.649 42.8438 183.814 47.5954C182.321 51.4623 179.922 59.5553 175.819 61.1212C171.681 62.7021 164.022 58.3273 160.253 56.4981Z" fill="white"/>
<path d="M135.688 41.1184C131.765 39.5128 126.272 33.1368 123.709 29.6378C121.519 26.648 120.949 25.7488 121.554 21.9873C124.801 18.1484 130.46 15.3447 134.712 12.6677C142.271 7.90862 149.817 3.0676 157.485 -1.51322C162.517 -4.51815 167.881 -7.23607 172.689 -10.5842C176.464 -12.0899 179.988 -15.6952 183.964 -16.5714C184.735 -16.7413 186.024 -16.517 186.615 -15.9318C187.137 -15.417 187.329 -14.9261 187.269 -14.1973C186.928 -9.99891 147.112 34.5575 141.711 39.0661C139.554 40.8676 138.535 41.3637 135.688 41.1184Z" fill="white"/>
<path d="M-55.479 180.04C-56.5942 178.759 -59.6634 174.665 -59.9797 173.122C-60.0522 172.766 -59.9648 172.57 -59.7531 172.289C-59.3359 171.731 -58.77 171.252 -58.2228 170.822C-56.533 169.497 -36.4723 155.044 -36.031 155.02C-35.427 154.988 -34.9097 155.361 -34.5481 155.804C-33.7891 156.736 -33.4121 158.09 -32.8242 159.15C-31.9167 160.786 -30.8469 162.337 -29.7266 163.834C-27.1435 167.285 -24.4635 170.613 -21.4576 173.713C-18.4681 176.796 -15.0737 179.59 -11.8204 182.397C-4.99869 188.281 1.94279 193.963 8.45908 200.193C28.2579 219.121 37.2776 241.688 38.9629 268.82C39.273 273.814 38.8629 278.781 38.9453 283.77L33.1023 287.143C32.7789 285.579 32.7885 282.654 30.877 281.909C26.6939 280.453 21.0923 284.925 17.3027 287.112C11.2583 290.604 13.625 286.062 11.5999 281.776C11.39 281.333 12.0373 280.117 12.4733 279.787C19.0962 274.764 32.078 271.799 31.6164 261.53C29.4061 248.695 13.5588 264.128 8.03531 264.953C7.03296 263.407 5.38285 258.771 5.63511 256.83C11.1457 253.269 21.7327 248.941 24.8181 243.253C25.9262 241.212 25.9882 238.745 25.2918 236.571C24.9203 235.411 23.9295 233.918 22.8125 233.359C22.136 233.021 21.425 232.396 20.7055 232.198C13.3814 230.186 0.208453 241.825 -1.97038 241.071C-3.39293 240.58 -5.82025 236.014 -6.45991 234.603C-6.64499 234.194 -6.87738 233.804 -6.68118 233.364C-5.48504 230.682 8.91952 226.079 11.3957 219.405C11.9485 217.913 12.1422 215.78 11.4388 214.297C10.9002 213.161 9.19113 210.518 8.00076 210.169C6.69901 209.787 5.61963 209.142 4.23203 208.967C-1.29412 208.272 -8.2275 212.975 -12.7982 215.795C-14.3913 216.777 -16.0928 218.023 -17.9076 218.516C-18.531 218.341 -19.061 217.904 -19.5329 217.478C-20.4342 216.664 -23.6135 213.664 -23.4735 212.386C-23.4306 211.982 -23.2495 211.793 -22.9456 211.549C-22.2461 210.987 -21.3755 210.563 -20.6084 210.088C-17.9017 208.412 -12.8597 205.731 -10.6259 203.785C-9.14942 202.497 -7.76273 200.707 -7.65725 198.693C-7.58045 197.228 -8.53979 194.986 -9.5863 193.95C-10.0816 193.46 -10.8657 193.118 -11.4778 192.786C-20.3782 187.961 -34.3431 202.6 -37.3221 202.2C-38.0146 202.106 -42.6124 197.253 -43.1563 196.469C-43.4755 196.009 -43.6779 195.641 -43.5728 195.079C-42.7757 194.009 -41.5773 193.394 -40.4681 192.691C-36.2863 190.045 -28.8431 186.169 -27.7748 180.945C-27.3577 178.907 -27.8809 176.848 -29.0577 175.16C-29.8244 174.063 -31.6275 172.057 -33.0186 171.842C-34.0654 171.681 -35.1312 170.923 -36.2078 171.087C-37.9754 171.355 -39.5533 171.482 -41.242 172.149C-45.188 173.71 -52.0517 179.465 -55.2721 180.007C-55.3412 180.018 -55.4099 180.028 -55.479 180.04Z" fill="white"/>
</svg>
